<svg width="186" height="32" viewBox="0 0 186 32" fill="none" xmlns="http://www.w3.org/2000/svg">
<g clip-path="url(#clip0_1_1521)">
<path d="M19.8245 15.667C19.8245 18.5021 22.1336 20.8112 24.9687 20.8112C26.1995 20.811 27.3891 20.3683 28.3205 19.5637L30.2673 22.9407C28.7301 24.0657 26.8738 24.6705 24.9687 24.667C19.9978 24.667 15.9688 20.6379 15.9688 15.667C15.9688 10.696 19.9978 6.66699 24.9687 6.66699C25.56 6.66691 26.1497 6.72494 26.7296 6.84025L24.9687 10.5228C22.1336 10.5228 19.8245 12.8318 19.8245 15.667ZM31.6208 11.9818H28.9305C29.003 11.5596 29.2645 11.3234 29.7936 11.0556L30.2882 10.8036C31.1735 10.35 31.646 9.83651 31.646 8.99857C31.646 8.4725 31.4412 8.05668 31.0348 7.75741C30.6284 7.45815 30.1497 7.31009 29.589 7.31009C29.1552 7.30499 28.7292 7.42651 28.3636 7.65976C27.995 7.88657 27.7208 8.17953 27.5507 8.54495L28.3288 9.32619C28.6312 8.71506 29.0691 8.41579 29.6456 8.41579C30.134 8.41579 30.4332 8.66781 30.4332 9.01747C30.4332 9.31044 30.2882 9.553 29.7275 9.83651L29.4094 9.99087C28.7194 10.3405 28.2407 10.7406 27.9635 11.1942C27.6863 11.6479 27.5507 12.218 27.5507 12.9079V13.0969H31.6208V11.9818ZM31.2635 14.3822H26.8091L24.582 18.238H29.0364L31.2635 22.0969L33.4907 18.238L31.2635 14.3822Z" fill="#050038"/>
</g>
<g clip-path="url(#clip1_1_1521)">
<path d="M48.3236 13.2866C48.3374 12.7452 48.4452 12.2103 48.642 11.7057C48.8264 11.2407 49.1104 10.8218 49.4741 10.4783C49.8631 10.1235 50.3214 9.85307 50.82 9.68395C51.4236 9.48582 52.0571 9.39045 52.6925 9.40289C53.3998 9.37985 54.1056 9.49043 54.7728 9.72726C55.2511 9.90384 55.6921 10.1684 56.0731 10.5073C56.3645 10.767 56.5958 11.0871 56.7508 11.4454C56.8633 11.7067 56.9374 11.9827 56.9715 12.2656C56.9775 12.3176 56.9707 12.3703 56.9519 12.4192C56.933 12.468 56.9026 12.5116 56.8633 12.5462C56.7859 12.6165 56.6849 12.6551 56.5804 12.6544H55.4114C55.3201 12.6586 55.2302 12.6306 55.1575 12.5752C55.1012 12.5299 55.055 12.4732 55.0221 12.4089C54.9731 12.3232 54.9224 12.2386 54.87 12.155C54.7629 11.9998 54.6309 11.8634 54.4793 11.7514C54.266 11.5928 54.0305 11.4666 53.7803 11.3768C53.4322 11.2558 53.065 11.1996 52.6966 11.2109C52.0659 11.1794 51.4467 11.3882 50.9637 11.7951C50.7461 11.9941 50.5721 12.236 50.4529 12.5057C50.3336 12.7754 50.2716 13.0668 50.2708 13.3617C50.25 13.7538 50.2404 14.1463 50.2417 14.5389C50.2417 14.9568 50.2417 15.3499 50.2708 15.7162C50.2979 16.5151 50.5311 17.0952 50.9637 17.4551C51.4571 17.8356 52.0702 18.0274 52.6925 17.996C53.0232 17.9985 53.353 17.9594 53.6739 17.8794C53.955 17.8108 54.2181 17.6831 54.4461 17.5053C54.6696 17.3224 54.8433 17.086 54.9516 16.8188C55.0806 16.487 55.1419 16.1336 55.1327 15.7784V15.6558H53.3707C53.3194 15.6566 53.2684 15.6467 53.2211 15.6266C53.1738 15.6065 53.1312 15.5768 53.0961 15.5392C53.0594 15.5041 53.0303 15.4618 53.0105 15.415C52.9908 15.3681 52.9809 15.3178 52.9814 15.2669V14.2408C52.9825 14.1377 53.0238 14.0391 53.0965 13.9661C53.1692 13.893 53.2676 13.8512 53.3707 13.8496H56.6988C56.8019 13.8512 56.9004 13.893 56.9732 13.9662C57.0459 14.0394 57.0872 14.1381 57.0881 14.2413V15.8281C57.0941 16.3723 57.0011 16.9129 56.8135 17.4237C56.6332 17.8968 56.3488 18.3233 55.9814 18.6715C55.5879 19.0431 55.1198 19.3267 54.6083 19.5036C53.3629 19.8934 52.0281 19.8934 50.7827 19.5036C50.2858 19.3393 49.8302 19.0697 49.4469 18.7134C49.0875 18.3615 48.8092 17.9353 48.6314 17.4647C48.4382 16.9544 48.3327 16.4151 48.3195 15.8696C48.3195 15.6867 48.3029 15.4849 48.2987 15.2642C48.2946 15.0439 48.2987 14.8149 48.2987 14.5841V13.9059C48.2987 13.6833 48.3112 13.4898 48.3195 13.2986M61.5358 13.7358C61.2913 13.729 61.048 13.7708 60.8198 13.8589C60.6355 13.9317 60.4669 14.0386 60.3226 14.1749C60.1921 14.2987 60.0863 14.4462 60.0107 14.6094C59.944 14.7534 59.8985 14.9063 59.8757 15.0633H63.1374C63.1165 14.9088 63.0802 14.7567 63.0291 14.6094C62.9751 14.4473 62.8862 14.299 62.7688 14.1749C62.6352 14.0363 62.4725 13.9284 62.2928 13.8589C62.0509 13.7685 61.7935 13.7267 61.5354 13.7358H61.5358ZM57.999 15.9014C57.9953 15.3835 58.0783 14.8693 58.2446 14.3786C58.3958 13.92 58.6362 13.4958 58.9519 13.1304C59.2625 12.7778 59.6438 12.4945 60.0711 12.2987C60.5289 12.0941 61.0256 11.9911 61.5271 11.9969C62.0279 11.9906 62.5243 12.0912 62.983 12.2923C63.413 12.4796 63.7997 12.7536 64.1188 13.0972C64.4317 13.4362 64.6748 13.8334 64.8344 14.2662C65.0039 14.7163 65.0901 15.1937 65.0882 15.6747V16.3239C65.0866 16.4271 65.0448 16.5256 64.9718 16.5985C64.8988 16.6714 64.8002 16.7131 64.6971 16.7146H59.8752C59.8706 16.9178 59.9167 17.1192 60.0107 17.2993C60.1029 17.4629 60.2291 17.6048 60.3812 17.7154C60.541 17.8338 60.7217 17.9218 60.9133 17.9753C61.1166 18.0318 61.3266 18.0605 61.5377 18.0605C61.7911 18.0679 62.0445 18.0361 62.2887 17.967C62.4592 17.9154 62.6204 17.8352 62.7646 17.7297C62.8457 17.6675 62.9328 17.614 63.025 17.5698C63.1125 17.5371 63.2061 17.5219 63.2996 17.526H64.4538C64.5598 17.5274 64.6611 17.5693 64.7367 17.6426C64.7751 17.6766 64.8049 17.7192 64.8237 17.7669C64.8425 17.8146 64.8498 17.8661 64.845 17.9172C64.8126 18.1058 64.7357 18.284 64.6206 18.4369C64.4515 18.6811 64.24 18.8922 63.9963 19.0613C63.6764 19.2838 63.3262 19.459 62.9563 19.5815C62.4973 19.731 62.0161 19.8011 61.5335 19.7888C61.0343 19.7946 60.539 19.6993 60.0775 19.5087C59.6473 19.3306 59.262 19.0591 58.9496 18.7139C58.6344 18.3529 58.3942 17.9328 58.2428 17.4781C58.0734 16.9685 57.9904 16.4342 57.9972 15.8972M68.5462 16.9413C68.5324 17.2012 68.6176 17.456 68.7854 17.655C68.9434 17.8338 69.2387 17.9232 69.6737 17.9232H70.5537C70.6567 17.9244 70.7551 17.9657 70.8281 18.0383C70.901 18.1109 70.9428 18.2091 70.9445 18.3121V19.2649C70.9429 19.3682 70.9012 19.4668 70.8282 19.5398C70.7551 19.6128 70.6565 19.6546 70.5533 19.6561H69.4843C68.5785 19.6561 67.8855 19.4368 67.404 18.9986C66.923 18.5609 66.6802 17.8891 66.676 16.9851V13.8796H65.7149C65.6639 13.8802 65.6133 13.8702 65.5664 13.8501C65.5195 13.83 65.4773 13.8004 65.4426 13.763C65.4048 13.7285 65.3749 13.6863 65.3548 13.6392C65.3347 13.5922 65.3249 13.5414 65.326 13.4903V12.536C65.3254 12.485 65.3355 12.4345 65.3556 12.3876C65.3756 12.3407 65.4053 12.2985 65.4426 12.2637C65.4776 12.2268 65.5199 12.1974 65.5667 12.1773C65.6135 12.1573 65.6639 12.147 65.7149 12.1472H66.6696V9.79269C66.6711 9.68991 66.7126 9.59177 66.7853 9.51909C66.858 9.44641 66.9561 9.40489 67.0589 9.40335H68.1569C68.2596 9.40489 68.3576 9.44634 68.4303 9.51893C68.503 9.59151 68.5446 9.68953 68.5462 9.79223V12.1467H70.4183C70.518 12.1525 70.6119 12.1959 70.681 12.2681C70.7501 12.3404 70.7892 12.4361 70.7906 12.536V13.4907C70.789 13.5934 70.7476 13.6915 70.675 13.7642C70.6024 13.8368 70.5044 13.8784 70.4017 13.8801H68.5292L68.5462 16.9418V16.9413ZM78.0346 15.8866L76.445 11.7703L74.8577 15.8866H78.0346ZM77.2398 9.54664C77.303 9.54207 77.3665 9.5506 77.4263 9.57169C77.486 9.59278 77.5408 9.62598 77.5872 9.6692C77.6803 9.77702 77.7507 9.90235 77.795 10.0378L81.3317 19.1654C81.3414 19.1976 81.346 19.2313 81.346 19.2649C81.3446 19.3681 81.303 19.4667 81.23 19.5398C81.1571 19.6128 81.0585 19.6545 80.9553 19.6561H79.9149C79.8426 19.6637 79.7695 19.6567 79.6998 19.6357C79.6302 19.6147 79.5655 19.5799 79.5095 19.5335C79.4414 19.465 79.3877 19.3835 79.3514 19.2939L78.7271 17.6924H74.1651L73.5408 19.2939C73.5046 19.3835 73.4508 19.465 73.3828 19.5335C73.3268 19.58 73.2621 19.6148 73.1925 19.6359C73.1228 19.6569 73.0497 19.6638 72.9773 19.6561H71.9369C71.8341 19.6538 71.7361 19.6118 71.6636 19.5389C71.5911 19.466 71.5497 19.3678 71.548 19.2649C71.5473 19.2311 71.5523 19.1975 71.5628 19.1654L75.0991 10.0378C75.1433 9.90235 75.2143 9.77702 75.3074 9.6692C75.3536 9.62574 75.4083 9.59239 75.4681 9.57129C75.528 9.55019 75.5915 9.54179 75.6548 9.54664H77.2398ZM87.5225 16.305C87.5515 16.0367 87.5515 15.7661 87.5225 15.4978C87.4663 14.8739 87.2727 14.4205 86.9461 14.1478C86.6101 13.8689 86.1846 13.7211 85.7481 13.7317C85.3129 13.7179 84.8882 13.8662 84.5561 14.1478C84.389 14.3009 84.2538 14.4855 84.1585 14.6912C84.0631 14.8968 84.0094 15.1192 84.0004 15.3457C83.9783 15.5279 83.9686 15.7114 83.9714 15.8949C83.9687 16.0788 83.9783 16.2622 84.0004 16.4442C84.0258 16.8957 84.2248 17.3201 84.5561 17.6283C84.8837 17.9186 85.3099 18.0734 85.7481 18.0605C86.1846 18.0711 86.6101 17.9233 86.9461 17.6444C87.2727 17.3721 87.4663 16.921 87.5225 16.2944V16.305ZM86.1849 19.7999C85.9155 19.8026 85.6468 19.7739 85.3841 19.7142C85.1695 19.6663 84.9603 19.5967 84.7598 19.5064C84.6004 19.4261 84.4503 19.3284 84.3124 19.2152C84.2045 19.1297 84.1037 19.0358 84.011 18.9341V22.0087C84.0094 22.1119 83.9676 22.2105 83.8946 22.2835C83.8216 22.3565 83.7231 22.3982 83.6199 22.3999H82.5237C82.4204 22.3986 82.3216 22.357 82.2486 22.2839C82.1755 22.2108 82.1339 22.1121 82.1325 22.0087V12.536C82.135 12.4333 82.1771 12.3355 82.25 12.263C82.3229 12.1905 82.421 12.149 82.5237 12.1472H83.6199C83.7227 12.1488 83.8209 12.1902 83.8938 12.2627C83.9668 12.3352 84.0088 12.4332 84.011 12.536V12.8692C84.224 12.6335 84.4812 12.442 84.7681 12.3057C84.9686 12.2152 85.1777 12.1454 85.3924 12.0974C85.6551 12.0378 85.9238 12.0092 86.1932 12.0121C86.6442 12.0056 87.0909 12.1015 87.4994 12.2927C87.8791 12.4724 88.2182 12.7282 88.4956 13.0438C88.7747 13.364 88.9952 13.7308 89.1471 14.1275C89.3051 14.5357 89.3954 14.967 89.413 15.4047C89.4235 15.548 89.4277 15.7166 89.4277 15.9101C89.4277 16.1037 89.4277 16.2723 89.413 16.4156C89.3952 16.8531 89.3054 17.2846 89.1471 17.6928C88.9952 18.0895 88.7746 18.4563 88.4956 18.7765C88.2181 19.0921 87.8792 19.3476 87.4994 19.5275C87.0877 19.7171 86.6381 19.8103 86.1849 19.7999ZM95.6852 16.305C95.7143 16.0367 95.7143 15.7661 95.6852 15.4978C95.6272 14.8739 95.436 14.4205 95.107 14.1478C94.7714 13.8682 94.3456 13.7204 93.909 13.7317C93.4739 13.7179 93.0491 13.8662 92.717 14.1478C92.5499 14.3009 92.4147 14.4855 92.3194 14.6912C92.224 14.8968 92.1703 15.1192 92.1614 15.3457C92.1404 15.528 92.1307 15.7114 92.1323 15.8949C92.1305 16.0788 92.1402 16.2622 92.1614 16.4442C92.1867 16.8957 92.3858 17.3201 92.717 17.6283C93.0448 17.9189 93.4711 18.0735 93.909 18.0605C94.3456 18.0718 94.7714 17.9239 95.107 17.6444C95.436 17.3721 95.6272 16.921 95.6852 16.2944V16.305ZM94.3417 19.7893C94.0723 19.7921 93.8036 19.7635 93.5409 19.704C93.3263 19.6557 93.1171 19.5859 92.9165 19.4958C92.7553 19.4187 92.6032 19.3238 92.4632 19.2128C92.3547 19.1273 92.2531 19.0334 92.1595 18.9318V22.0087C92.1597 22.06 92.1495 22.1108 92.1295 22.158C92.1094 22.2052 92.08 22.2479 92.043 22.2833C92.0079 22.3203 91.9656 22.3496 91.9188 22.3697C91.872 22.3897 91.8216 22.4 91.7706 22.3999H90.6722C90.5692 22.3982 90.4709 22.3564 90.3983 22.2833C90.3256 22.2103 90.2844 22.1117 90.2833 22.0087V12.536C90.2845 12.4333 90.3259 12.335 90.3985 12.2624C90.4712 12.1897 90.5694 12.1483 90.6722 12.1472H91.7706C91.873 12.1496 91.9705 12.1914 92.0429 12.2638C92.1153 12.3362 92.1571 12.4337 92.1595 12.536V12.8692C92.2531 12.7678 92.3549 12.6733 92.4632 12.5881C92.6032 12.4775 92.7553 12.3821 92.9165 12.3052C93.1172 12.2152 93.3263 12.1456 93.5409 12.0974C93.8036 12.0379 94.0723 12.0093 94.3417 12.0121C94.7934 12.0056 95.2408 12.1015 95.6502 12.2927C96.0294 12.4735 96.3682 12.729 96.6464 13.0438C96.9247 13.3641 97.1445 13.7309 97.2956 14.1275C97.4541 14.5357 97.5439 14.967 97.5619 15.4047C97.572 15.548 97.5762 15.7166 97.5762 15.9101C97.5762 16.1037 97.5762 16.2723 97.5619 16.4156C97.544 16.8531 97.454 17.2846 97.2956 17.6928C97.1444 18.0893 96.9247 18.4562 96.6464 18.7765C96.3682 19.0913 96.0294 19.3468 95.6502 19.5275C95.2409 19.7189 94.7935 19.815 94.3417 19.8086" fill="#050038"/>
</g>
<g clip-path="url(#clip2_1_1521)">
<path d="M120.379 19.0433C120.317 19.1056 120.213 19.1834 120.068 19.2768C119.922 19.3703 119.733 19.4637 119.5 19.5572C119.266 19.6505 118.98 19.7308 118.643 19.7985C118.306 19.8658 117.919 19.8997 117.483 19.8997C116.642 19.8997 115.916 19.7646 115.303 19.4949C114.691 19.2252 114.184 18.8486 113.785 18.366C113.385 17.8833 113.092 17.3125 112.905 16.6531C112.718 15.994 112.625 15.27 112.625 14.481C112.625 13.6923 112.726 12.9628 112.929 12.2933C113.131 11.6237 113.435 11.0452 113.839 10.5571C114.244 10.0693 114.75 9.68779 115.358 9.41261C115.965 9.13775 116.679 9 117.499 9C117.904 9 118.269 9.03645 118.596 9.10898C118.923 9.18167 119.209 9.26739 119.453 9.36591C119.697 9.4647 119.899 9.56829 120.06 9.67733C120.221 9.78631 120.343 9.87736 120.426 9.94979C120.52 10.033 120.6 10.1316 120.667 10.2456C120.735 10.36 120.769 10.4846 120.769 10.6194C120.769 10.8271 120.691 11.0347 120.535 11.2422C120.379 11.45 120.208 11.642 120.021 11.8184C119.897 11.6938 119.757 11.5668 119.601 11.4369C119.445 11.3072 119.271 11.1931 119.079 11.0943C118.887 10.9958 118.669 10.9128 118.425 10.8452C118.181 10.7778 117.909 10.7439 117.608 10.7439C117.078 10.7439 116.635 10.8505 116.276 11.0632C115.918 11.2761 115.63 11.5536 115.412 11.8962C115.194 12.2388 115.039 12.6307 114.945 13.0718C114.852 13.5131 114.805 13.962 114.805 14.4187C114.805 14.9068 114.852 15.3739 114.945 15.8201C115.038 16.2664 115.199 16.661 115.428 17.0034C115.656 17.346 115.955 17.6212 116.323 17.8287C116.691 18.0365 117.151 18.1401 117.701 18.1401C117.992 18.1401 118.259 18.1039 118.503 18.0312C118.747 17.9586 118.962 17.8703 119.149 17.7663C119.336 17.6628 119.5 17.5539 119.64 17.4395C119.78 17.3253 119.897 17.2268 119.99 17.1436C120.052 17.2164 120.125 17.3047 120.208 17.4084C120.292 17.5131 120.37 17.6223 120.442 17.7354C120.514 17.8497 120.576 17.9638 120.628 18.0778C120.68 18.1922 120.706 18.2959 120.706 18.3892C120.706 18.5243 120.68 18.6384 120.628 18.7318C120.576 18.8253 120.493 18.9292 120.379 19.0433ZM128.404 17.8491C128.404 18.6741 128.524 19.2746 128.764 19.6506C128.576 19.7235 128.401 19.7758 128.239 19.8072C128.077 19.8385 127.907 19.8541 127.73 19.8541C127.354 19.8541 127.069 19.781 126.876 19.6348C126.683 19.4888 126.56 19.2799 126.508 19.0082C126.278 19.2487 125.976 19.4522 125.6 19.6194C125.224 19.7861 124.764 19.8699 124.221 19.8699C123.939 19.8699 123.657 19.8308 123.375 19.753C123.093 19.6745 122.837 19.5472 122.608 19.3705C122.378 19.1934 122.19 18.9565 122.044 18.6598C121.897 18.3631 121.824 18.0014 121.824 17.5747C121.824 17.0438 121.952 16.6116 122.208 16.2786C122.464 15.9454 122.785 15.6826 123.172 15.4899C123.558 15.2975 123.976 15.165 124.425 15.0919C124.874 15.019 125.286 14.9723 125.662 14.9512C125.788 14.9409 125.91 14.9355 126.031 14.9355H126.367V14.6504C126.367 14.249 126.26 13.9638 126.046 13.795C125.832 13.6261 125.485 13.5414 125.004 13.5414C124.555 13.5414 124.156 13.6145 123.806 13.7607C123.456 13.907 123.114 14.074 122.78 14.262C122.634 14.0845 122.516 13.8887 122.428 13.6745C122.339 13.4606 122.294 13.3013 122.294 13.1968C122.294 13.0506 122.375 12.9097 122.537 12.7738C122.699 12.6382 122.921 12.5153 123.203 12.4057C123.485 12.296 123.809 12.2074 124.174 12.1394C124.54 12.0716 124.926 12.0376 125.333 12.0376C125.897 12.0376 126.375 12.0951 126.767 12.2099C127.158 12.3249 127.477 12.5024 127.722 12.7425C127.968 12.9829 128.143 13.2829 128.247 13.6432C128.351 14.0035 128.404 14.424 128.404 14.9042V17.8491ZM126.399 16.032H126.179C126.106 16.032 126.033 16.0374 125.96 16.0477C125.699 16.0688 125.44 16.1 125.185 16.1416C124.929 16.1835 124.701 16.2566 124.503 16.361C124.305 16.4655 124.143 16.6013 124.018 16.7682C123.892 16.9354 123.83 17.1496 123.83 17.4106C123.83 17.703 123.913 17.9509 124.08 18.1546C124.247 18.3583 124.529 18.4601 124.926 18.4601C125.124 18.4601 125.312 18.4341 125.49 18.3816C125.667 18.3297 125.824 18.2617 125.96 18.1782C126.096 18.0946 126.203 18.0033 126.281 17.9039C126.359 17.8048 126.399 17.7135 126.399 17.6299V16.032H126.399ZM132.304 12.9461C132.47 12.7478 132.731 12.5466 133.085 12.3429C133.439 12.1393 133.886 12.0375 134.428 12.0375C134.813 12.0375 135.18 12.1028 135.529 12.2333C135.877 12.364 136.187 12.5755 136.458 12.8677C136.729 13.1602 136.945 13.5467 137.106 14.0269C137.267 14.5074 137.348 15.0975 137.348 15.797C137.348 16.6115 137.254 17.2827 137.067 17.8099C136.879 18.3375 136.638 18.7552 136.341 19.0632C136.044 19.3713 135.714 19.588 135.349 19.7132C134.985 19.8385 134.621 19.9013 134.256 19.9013C133.954 19.9013 133.691 19.8673 133.468 19.7995C133.244 19.7314 133.054 19.656 132.898 19.5723C132.742 19.4888 132.622 19.4054 132.539 19.3216C132.455 19.2382 132.403 19.1806 132.382 19.1492V23H130.252V12.2567C130.304 12.2465 130.368 12.236 130.441 12.2255C130.505 12.2152 130.578 12.2073 130.663 12.2019C130.747 12.1968 130.847 12.1942 130.962 12.1942C131.309 12.1942 131.604 12.2517 131.846 12.3665C132.088 12.4815 132.241 12.6746 132.304 12.9461ZM135.124 15.844C135.124 15.5307 135.098 15.2385 135.046 14.9668C134.994 14.6954 134.908 14.4604 134.789 14.2619C134.669 14.0636 134.508 13.9094 134.306 13.7997C134.103 13.6901 133.857 13.6354 133.566 13.6354C133.13 13.6354 132.826 13.719 132.655 13.8859C132.484 14.0531 132.398 14.236 132.398 14.4342V17.7552C132.481 17.8389 132.629 17.9379 132.842 18.0528C133.055 18.1678 133.301 18.225 133.582 18.225C134.111 18.225 134.501 18.0164 134.75 17.5985C134.999 17.1809 135.124 16.5959 135.124 15.844ZM138.992 18.5384C138.919 18.3297 138.872 18.1102 138.851 17.8804C138.83 17.6508 138.82 17.4211 138.82 17.1911V9.9227C138.893 9.91245 138.971 9.90194 139.055 9.89137C139.128 9.88112 139.206 9.87333 139.29 9.86789C139.374 9.86277 139.457 9.8601 139.541 9.8601C139.708 9.8601 139.875 9.87579 140.042 9.90706C140.209 9.93844 140.36 10.0011 140.496 10.095C140.632 10.189 140.742 10.3171 140.825 10.4788C140.909 10.6408 140.95 10.8524 140.95 11.1132V12.2254H143.144V13.8076H140.95V17.1481C140.95 17.8766 141.248 18.2407 141.843 18.2407C141.989 18.2407 142.128 18.2173 142.258 18.1702C142.389 18.1232 142.506 18.0711 142.611 18.0136C142.715 17.9562 142.807 17.8962 142.885 17.8335C142.963 17.7708 143.018 17.7239 143.049 17.6925C143.206 17.9224 143.326 18.1214 143.41 18.2893C143.493 18.4575 143.535 18.6152 143.535 18.7627C143.535 18.8998 143.48 19.0343 143.371 19.166C143.261 19.2977 143.107 19.4191 142.909 19.5297C142.71 19.6403 142.47 19.7299 142.188 19.7985C141.906 19.867 141.598 19.9013 141.264 19.9013C140.616 19.9013 140.112 19.7759 139.752 19.5254C139.392 19.2746 139.138 18.9456 138.992 18.5384ZM148.539 18.3347C148.801 18.3347 149.032 18.3061 149.231 18.2485C149.43 18.1913 149.608 18.1208 149.765 18.0372C149.922 17.9538 150.059 17.8623 150.174 17.7631C150.289 17.6639 150.394 17.5726 150.489 17.4889C150.614 17.6454 150.745 17.8467 150.882 18.0919C151.018 18.3375 151.086 18.5384 151.086 18.695C151.086 18.9248 150.955 19.1337 150.694 19.3216C150.475 19.4888 150.164 19.6324 149.762 19.7524C149.36 19.8724 148.887 19.9325 148.345 19.9325C147.854 19.9325 147.371 19.8699 146.896 19.7446C146.42 19.6193 145.997 19.3999 145.627 19.0866C145.256 18.7734 144.956 18.3531 144.726 17.8257C144.496 17.2983 144.381 16.6327 144.381 15.8284C144.381 15.1704 144.483 14.6041 144.687 14.1288C144.89 13.6537 145.162 13.2594 145.501 12.9461C145.841 12.6328 146.224 12.4032 146.653 12.2568C147.081 12.1107 147.52 12.0375 147.969 12.0375C148.553 12.0375 149.049 12.1291 149.457 12.3117C149.864 12.4945 150.195 12.74 150.451 13.0479C150.707 13.356 150.892 13.7085 151.007 14.1053C151.122 14.5023 151.18 14.9198 151.18 15.3584V15.5777C151.18 15.6615 151.177 15.75 151.172 15.844C151.167 15.9381 151.161 16.0296 151.156 16.1181C151.151 16.2071 151.143 16.2775 151.133 16.3297H146.512C146.554 16.9041 146.732 17.3818 147.046 17.7631C147.36 18.1444 147.858 18.3347 148.539 18.3347ZM149.253 15.1547C149.253 14.6535 149.156 14.2462 148.961 13.9329C148.767 13.6197 148.418 13.4629 147.914 13.4629C147.483 13.4629 147.139 13.6118 146.882 13.9094C146.624 14.2071 146.496 14.6222 146.496 15.1547H149.253ZM154.887 12.9856C154.95 12.8925 155.033 12.7889 155.138 12.6748C155.242 12.5608 155.37 12.4572 155.522 12.364C155.673 12.2708 155.84 12.1929 156.023 12.1308C156.205 12.0686 156.401 12.0375 156.611 12.0375C156.736 12.0375 156.869 12.048 157.01 12.0686C157.151 12.0894 157.281 12.1283 157.401 12.1851C157.521 12.2422 157.618 12.3197 157.691 12.4181C157.764 12.5166 157.801 12.6382 157.801 12.7831C157.801 13.011 157.743 13.2726 157.629 13.5681C157.514 13.8637 157.399 14.1158 157.284 14.3246C157.106 14.1784 156.929 14.0662 156.751 13.9878C156.574 13.9095 156.365 13.8703 156.125 13.8703C155.801 13.8703 155.529 13.9646 155.31 14.153C155.091 14.3415 154.981 14.5667 154.981 14.8285V19.8996H152.851V12.2567C152.903 12.2465 152.966 12.236 153.039 12.2255C153.101 12.2152 153.174 12.2073 153.258 12.2019C153.342 12.1968 153.441 12.1942 153.556 12.1942C153.89 12.1942 154.18 12.2589 154.425 12.3883C154.67 12.5174 154.825 12.7167 154.887 12.9856ZM160.944 12.9856C161.007 12.8925 161.09 12.7889 161.195 12.6748C161.299 12.5608 161.427 12.4572 161.579 12.364C161.73 12.2708 161.897 12.1929 162.08 12.1308C162.263 12.0686 162.458 12.0375 162.667 12.0375C162.793 12.0375 162.926 12.048 163.067 12.0686C163.208 12.0894 163.338 12.1283 163.458 12.1851C163.578 12.2422 163.675 12.3197 163.748 12.4181C163.821 12.5166 163.858 12.6382 163.858 12.7831C163.858 13.011 163.8 13.2726 163.686 13.5681C163.57 13.8637 163.456 14.1158 163.341 14.3246C163.163 14.1784 162.986 14.0662 162.808 13.9878C162.631 13.9095 162.422 13.8703 162.182 13.8703C161.858 13.8703 161.586 13.9646 161.367 14.153C161.148 14.3415 161.038 14.5667 161.038 14.8285V19.8996H158.908V12.2567C158.96 12.2465 159.023 12.236 159.096 12.2255C159.159 12.2152 159.232 12.2073 159.315 12.2019C159.399 12.1968 159.498 12.1942 159.613 12.1942C159.947 12.1942 160.237 12.2589 160.482 12.3883C160.727 12.5174 160.882 12.7167 160.944 12.9856ZM171.111 17.8491C171.111 18.6741 171.231 19.2746 171.471 19.6506C171.283 19.7235 171.108 19.7758 170.946 19.8072C170.784 19.8385 170.615 19.8541 170.437 19.8541C170.061 19.8541 169.777 19.781 169.584 19.6348C169.39 19.4888 169.268 19.2799 169.215 19.0082C168.986 19.2487 168.683 19.4522 168.307 19.6194C167.931 19.7861 167.471 19.8699 166.928 19.8699C166.646 19.8699 166.365 19.8308 166.082 19.753C165.801 19.6745 165.544 19.5472 165.315 19.3705C165.085 19.1934 164.897 18.9565 164.751 18.6598C164.605 18.3631 164.532 18.0014 164.532 17.5747C164.532 17.0438 164.659 16.6116 164.916 16.2786C165.171 15.9454 165.492 15.6826 165.879 15.4899C166.265 15.2975 166.683 15.165 167.132 15.0919C167.581 15.019 167.994 14.9723 168.369 14.9512C168.495 14.9409 168.618 14.9355 168.738 14.9355H169.075V14.6504C169.075 14.249 168.967 13.9638 168.753 13.795C168.539 13.6261 168.192 13.5414 167.712 13.5414C167.263 13.5414 166.863 13.6145 166.513 13.7607C166.163 13.907 165.821 14.074 165.487 14.262C165.341 14.0845 165.223 13.8887 165.135 13.6745C165.046 13.4606 165.002 13.3013 165.002 13.1968C165.002 13.0506 165.082 12.9097 165.244 12.7738C165.406 12.6382 165.628 12.5153 165.91 12.4057C166.192 12.296 166.516 12.2074 166.881 12.1394C167.247 12.0716 167.633 12.0376 168.041 12.0376C168.604 12.0376 169.082 12.0951 169.474 12.2099C169.866 12.3249 170.184 12.5024 170.429 12.7425C170.675 12.9829 170.85 13.2829 170.954 13.6432C171.058 14.0035 171.111 14.424 171.111 14.9042V17.8491ZM169.106 16.032H168.886C168.813 16.032 168.74 16.0374 168.667 16.0477C168.406 16.0688 168.147 16.1 167.892 16.1416C167.636 16.1835 167.409 16.2566 167.21 16.361C167.012 16.4655 166.85 16.6013 166.725 16.7682C166.599 16.9354 166.537 17.1496 166.537 17.4106C166.537 17.703 166.62 17.9509 166.787 18.1546C166.954 18.3583 167.236 18.4601 167.633 18.4601C167.832 18.4601 168.02 18.4341 168.197 18.3816C168.375 18.3297 168.531 18.2617 168.667 18.1782C168.803 18.0946 168.91 18.0033 168.988 17.9039C169.067 17.8048 169.106 17.7135 169.106 17.6299V16.032H169.106Z" fill="#050038"/>
</g>
<defs>
<clipPath id="clip0_1_1521">
<rect width="19" height="32" fill="white" transform="translate(14.9688)"/>
</clipPath>
<clipPath id="clip1_1_1521">
<rect width="50" height="32" fill="white" transform="translate(48.2969)"/>
</clipPath>
<clipPath id="clip2_1_1521">
<rect width="59" height="32" fill="white" transform="translate(112.625)"/>
</clipPath>
</defs>
</svg>
