<svg width="206" height="115" viewBox="0 0 206 115" fill="none" xmlns="http://www.w3.org/2000/svg">
<g filter="url(#filter0_d_1_1579)">
<path d="M196.486 52.1713L42.8555 25.0822C38.5044 24.315 34.3551 27.2203 33.5879 31.5715L32.3723 38.4651C31.6051 42.8163 34.5104 46.9655 38.8616 47.7328L192.492 74.8219C196.843 75.5891 200.992 72.6837 201.759 68.3326L202.975 61.4389C203.742 57.0878 200.837 52.9385 196.486 52.1713Z" fill="#FFD02F"/>
<path d="M48.834 37.591L47.721 34.211L46.02 33.911L47.839 39.37L47.354 42.122L48.979 42.408L49.464 39.657L53.051 35.151L51.339 34.849L49.137 37.644L48.834 37.591Z" fill="#090909"/>
<path d="M57.2807 35.752C54.8327 35.32 53.2057 36.82 52.8047 39.095C52.4027 41.37 53.4187 43.336 55.8677 43.768C58.3157 44.2 59.9427 42.7 60.3437 40.425C60.7447 38.15 59.7287 36.183 57.2807 35.752ZM56.1217 42.327C54.6807 42.073 54.2097 40.817 54.4617 39.387C54.7137 37.958 55.5857 36.938 57.0267 37.193C58.4787 37.448 58.9387 38.702 58.6867 40.132C58.4347 41.562 57.5727 42.583 56.1217 42.327Z" fill="#090909"/>
<path d="M67.4457 37.689L66.5897 42.542C66.4217 43.496 65.7367 44.023 64.6857 43.837C63.6457 43.654 63.1717 42.923 63.3397 41.969L64.1957 37.116L62.5817 36.832L61.7197 41.717C61.3837 43.624 62.3627 44.913 64.4207 45.276C66.5007 45.643 67.8617 44.766 68.1977 42.859L69.0597 37.974L67.4457 37.689Z" fill="#090909"/>
<path d="M74.6207 38.955L70.9807 38.313L69.6177 46.047L71.2317 46.332L71.7457 43.418L73.8357 43.787L74.3617 46.884L75.9867 47.171L75.4027 43.705C76.2087 43.445 76.7457 42.803 76.9157 41.839C77.1817 40.333 76.3327 39.256 74.6207 38.955ZM72.3447 40.016L73.9807 40.305C75.0427 40.492 75.3917 40.855 75.2657 41.57C75.1507 42.22 74.7287 42.525 73.7857 42.359L71.9877 42.042L72.3447 40.016Z" fill="#090909"/>
<path d="M82.2058 40.292L80.8418 48.027L82.4568 48.311L83.8198 40.577L82.2058 40.292Z" fill="#090909"/>
<path d="M89.0397 41.497L85.8118 40.928L84.4478 48.662L87.6758 49.232C90.0488 49.65 91.5348 48.315 91.9438 45.997C92.3548 43.667 91.4127 41.915 89.0397 41.497ZM87.7248 47.755L86.3158 47.506L87.1718 42.653L88.5798 42.901C90.1398 43.176 90.5228 44.361 90.2868 45.704C90.0518 47.037 89.2848 48.03 87.7248 47.755Z" fill="#090909"/>
<path d="M94.7049 48.985L95.0259 47.165L98.2219 47.729L98.4699 46.321L95.2739 45.757L95.5609 44.132L99.6669 44.856L99.9209 43.415L94.2009 42.407L92.8369 50.142L98.6759 51.171L98.9299 49.73L94.7049 48.985Z" fill="#090909"/>
<path d="M105.291 52.338L106.927 52.626L105.821 44.456L103.318 44.015L99.4946 51.316L101.088 51.596L102.085 49.616L105.031 50.136L105.291 52.338ZM104.031 45.737L104.508 45.822L104.846 48.651L102.745 48.281L104.031 45.737Z" fill="#090909"/>
<path d="M118.124 48.814C118.208 47.388 117.169 46.312 115.49 46.016C113.616 45.685 112.392 46.542 112.167 47.82C111.963 48.979 112.539 49.829 113.777 50.282L115.204 50.802C115.824 51.023 116.192 51.344 116.085 51.951C115.976 52.569 115.339 52.825 114.494 52.676C113.66 52.529 112.958 52.137 112.968 51.256L111.322 50.966C111.204 52.52 112.235 53.707 114.185 54.051C116.286 54.422 117.496 53.451 117.723 52.162C117.968 50.775 117.196 49.958 116.021 49.527L114.626 49.013C114.113 48.822 113.712 48.561 113.801 48.052C113.908 47.446 114.541 47.278 115.224 47.398C116.025 47.54 116.445 47.882 116.477 48.524L118.124 48.814Z" fill="#090909"/>
<path d="M126.017 48.017L119.593 46.884L119.343 48.303L121.748 48.727L120.634 55.043L122.248 55.328L123.362 49.012L125.767 49.436L126.017 48.017Z" fill="#090909"/>
<path d="M130.425 56.769L132.061 57.058L130.955 48.888L128.452 48.446L124.63 55.747L126.222 56.028L127.219 54.048L130.166 54.568L130.425 56.769ZM129.165 50.1691L129.642 50.2531L129.981 53.083L127.879 52.713L129.165 50.1691Z" fill="#090909"/>
<path d="M138.303 50.183L134.663 49.541L133.299 57.276L134.913 57.561L135.427 54.647L137.518 55.015L138.044 58.113L139.669 58.399L139.085 54.934C139.89 54.674 140.428 54.032 140.598 53.068C140.863 51.562 140.015 50.485 138.303 50.183ZM136.027 51.245L137.663 51.534C138.724 51.721 139.074 52.084 138.948 52.799C138.833 53.449 138.411 53.754 137.468 53.588L135.67 53.271L136.027 51.245Z" fill="#090909"/>
<path d="M148.369 51.958L141.945 50.826L141.695 52.245L144.1 52.6691L142.986 58.984L144.6 59.269L145.714 52.953L148.119 53.377L148.369 51.958Z" fill="#090909"/>
<path d="M155.021 55.32C155.105 53.894 154.066 52.818 152.387 52.522C150.513 52.191 149.29 53.048 149.065 54.326C148.86 55.485 149.436 56.3349 150.674 56.7879L152.102 57.308C152.722 57.529 153.09 57.85 152.983 58.457C152.874 59.075 152.237 59.331 151.392 59.182C150.558 59.035 149.856 58.6429 149.866 57.7619L148.219 57.472C148.102 59.026 149.132 60.213 151.082 60.557C153.184 60.928 154.394 59.957 154.621 58.668C154.866 57.281 154.094 56.464 152.919 56.033L151.524 55.519C151.01 55.328 150.609 55.067 150.699 54.558C150.806 53.952 151.439 53.784 152.121 53.904C152.923 54.046 153.343 54.388 153.375 55.03L155.021 55.32Z" fill="#090909"/>
<path d="M165.416 54.9641L164.885 57.976L161.462 57.372L161.993 54.361L160.379 54.076L159.015 61.8111L160.629 62.095L161.201 58.856L164.624 59.4601L164.053 62.6991L165.667 62.983L167.031 55.249L165.416 54.9641Z" fill="#090909"/>
<path d="M169.473 62.1691L169.794 60.3491L172.99 60.9131L173.238 59.5041L170.042 58.9411L170.329 57.3161L174.435 58.0401L174.689 56.5991L168.969 55.5911L167.605 63.3251L173.444 64.3551L173.698 62.9141L169.473 62.1691Z" fill="#090909"/>
<path d="M179.971 57.531L176.331 56.889L174.968 64.623L176.582 64.908L177.096 61.994L179.186 62.363L179.712 65.46L181.337 65.747L180.753 62.282C181.559 62.021 182.096 61.379 182.266 60.415C182.532 58.909 181.683 57.832 179.971 57.531ZM177.695 58.592L179.331 58.881C180.393 59.068 180.742 59.431 180.616 60.146C180.501 60.796 180.079 61.101 179.136 60.935L177.338 60.618L177.695 58.592Z" fill="#090909"/>
<path d="M184.844 64.879L185.165 63.059L188.36 63.623L188.609 62.215L185.413 61.651L185.699 60.026L189.805 60.75L190.059 59.309L184.339 58.301L182.976 66.035L188.814 67.065L189.069 65.624L184.844 64.879Z" fill="#090909"/>
</g>
<defs>
<filter id="filter0_d_1_1579" x="0.249512" y="0.959351" width="234.848" height="113.985" filterUnits="userSpaceOnUse" color-interpolation-filters="sRGB">
<feFlood flood-opacity="0" result="BackgroundImageFix"/>
<feColorMatrix in="SourceAlpha" type="matrix" values="0 0 0 0 0 0 0 0 0 0 0 0 0 0 0 0 0 0 127 0" result="hardAlpha"/>
<feOffset dy="8"/>
<feGaussianBlur stdDeviation="16"/>
<feColorMatrix type="matrix" values="0 0 0 0 0.0196078 0 0 0 0 0 0 0 0 0 0.219608 0 0 0 0.08 0"/>
<feBlend mode="normal" in2="BackgroundImageFix" result="effect1_dropShadow_1_1579"/>
<feBlend mode="normal" in="SourceGraphic" in2="effect1_dropShadow_1_1579" result="shape"/>
</filter>
</defs>
</svg>
