<svg width="20" height="25" viewBox="0 0 20 25" fill="none" xmlns="http://www.w3.org/2000/svg">
<path d="M16.6593 13.2578C16.6713 12.3258 16.9189 11.4119 17.379 10.6013C17.8391 9.79055 18.4968 9.10948 19.2908 8.62131C18.7864 7.90088 18.1209 7.30802 17.3473 6.88973C16.5736 6.47154 15.713 6.23946 14.834 6.21192C12.9589 6.01511 11.141 7.33398 10.1854 7.33398C9.21143 7.33398 7.74022 6.23146 6.15604 6.26403C5.13122 6.29716 4.13255 6.59512 3.25727 7.12898C2.38189 7.66284 1.65978 8.41426 1.16128 9.3102C-0.99835 13.0492 0.612535 18.5444 2.68125 21.5667C3.71631 23.0467 4.92594 24.6999 6.50872 24.6413C8.05763 24.577 8.63616 23.6536 10.5057 23.6536C12.358 23.6536 12.9007 24.6413 14.5157 24.604C16.1777 24.577 17.2248 23.1174 18.2236 21.6234C18.9673 20.5689 19.5395 19.4035 19.9191 18.1701C18.9535 17.7618 18.1295 17.0782 17.5499 16.2046C16.9702 15.3311 16.6604 14.3062 16.6593 13.2578Z" fill="white"/>
<path d="M13.6082 4.22399C14.5144 3.13608 14.9609 1.73782 14.8527 0.326172C13.4683 0.471525 12.1894 1.13324 11.2709 2.17937C10.8219 2.69043 10.478 3.28497 10.2589 3.929C10.0397 4.57304 9.94964 5.25402 9.99385 5.93286C10.6863 5.94003 11.3713 5.78993 11.9974 5.49392C12.6235 5.19791 13.1743 4.76371 13.6082 4.22399Z" fill="white"/>
</svg>
