<svg width="75" height="45" viewBox="0 0 75 45" fill="none" xmlns="http://www.w3.org/2000/svg">
<path d="M47.4812 18.289V10.1626H37.3073L37.4353 0.180664H28.989L28.797 10.1626H19.135L19.263 0.180664H10.7527L10.6248 10.1626H0.0668945V18.289H10.4968L10.3688 26.9272H0.0668945V35.0535H10.2408L10.1128 44.9715H18.6231L18.7511 35.0535H28.4771L28.3491 44.9715H36.7954L36.9234 35.0535H47.4812V26.9272H37.0513L37.1793 18.289H47.4812ZM28.6051 26.9272H18.8791L19.007 18.289H28.733L28.6051 26.9272ZM64.0898 44.9715H74.2637V0.180664H64.3458L64.2178 1.78034C63.9618 5.49159 62.2342 7.21923 58.459 7.41119L53.1481 7.66714V15.8575H64.0898V44.9715Z" fill="#050038"/>
</svg>
